<svg height="512pt" viewBox="-5 0 512 512" width="512pt" xmlns="http://www.w3.org/2000/svg"><path d="m491.472656 481.625-149.109375-451.246094c-3.621093-10.957031-16.027343-19.925781-27.570312-19.925781h-56.296875c-11.542969 0-18.023438 8.96875-14.402344 19.925781l133.972656 405.441406c.003906.007813.003906.015626.007813.019532l6.578125 19.90625c9.027344 27.339844 34.578125 45.804687 63.371094 45.804687h29.046874c11.542969 0 18.023438-8.96875 14.402344-19.925781zm0 0" fill="#1eb615"/><path d="m186.515625 455.742188 6.578125-19.910157c0-.003906.003906-.011719.003906-.015625l58.433594-176.835937 25.402344-76.875 50.136718-151.730469c3.621094-10.957031-2.859374-19.925781-14.402343-19.925781h-56.058594c-11.542969 0-23.949219 8.96875-27.570313 19.925781l-149.109374 451.25c-3.621094 10.957031 2.859374 19.925781 14.402343 19.925781h28.804688c28.796875 0 54.34375-18.464843 63.378906-45.808593zm0 0" fill="#0084ff"/><path d="m501.394531 478.34375-149.109375-451.242188c-5.019531-15.195312-21.488281-27.09765575-37.492187-27.09765575-.226563 0-126.667969-.00390625-126.667969-.00390625-16.003906 0-32.472656 11.902344-37.496094 27.097656l-149.105468 451.246094c-2.792969 8.449219-1.710938 17.003906 2.964843 23.476562 4.675781 6.46875 12.460938 10.179688 21.355469 10.179688h97.292969c33.375 0 62.828125-21.289062 73.296875-52.976562l55.023437-166.515626 55.023438 166.515626c10.464843 31.6875 39.917969 52.976562 73.292969 52.976562h97.296874c8.898438 0 16.679688-3.710938 21.355469-10.179688 4.679688-6.472656 5.761719-15.027343 2.96875-23.476562zm-324.800781-25.878906c-7.636719 23.109375-29.117188 38.636718-53.457031 38.636718h-97.292969c-2.105469 0-3.71875-.554687-4.417969-1.523437-.699219-.972656-.722656-2.675781-.0625-4.675781l149.109375-451.246094c2.207032-6.679688 10.621094-12.757812 17.652344-12.757812h124.542969c2.109375 0 3.71875.554687 4.417969 1.523437.703124.972656.722656 2.675781.0625 4.675781zm304.898438 37.113281c-.703126.96875-2.3125 1.523437-4.421876 1.523437h-97.296874c-24.335938 0-45.816407-15.523437-53.449219-38.632812l-63.859375-193.265625 72.253906-218.664063 146.835938 444.363282c.660156 2 .636718 3.703125-.0625 4.675781zm0 0"/><path d="m152.03125 197.332031c-5.484375-1.808593-11.390625 1.164063-13.203125 6.640625l-33.679687 101.925782c-1.8125 5.480468 1.164062 11.390624 6.640624 13.199218 1.089844.359375 2.195313.53125 3.28125.53125 4.386719 0 8.46875-2.78125 9.921876-7.171875l33.679687-101.925781c1.8125-5.480469-1.164063-11.390625-6.640625-13.199219zm0 0"/><path d="m164.800781 158.683594c-5.480469-1.808594-11.390625 1.164062-13.203125 6.644531l-1.550781 4.699219c-1.8125 5.476562 1.164063 11.386718 6.640625 13.199218 1.089844.359376 2.195312.53125 3.28125.53125 4.386719 0 8.46875-2.785156 9.921875-7.175781l1.550781-4.699219c1.8125-5.480468-1.164062-11.386718-6.640625-13.199218zm0 0"/></svg>