<svg height="512pt" viewBox="0 0 512.00033 512" width="512pt" xmlns="http://www.w3.org/2000/svg"><path d="m381.648438 101.042969 18.488281-30.578125c-63.101563-34.878906-135.476563-38.921875-199.125-16.570313 3.6875 2.503907 8.328125 3.460938 12.871093 2.40625l11.375-2.648437c9.058594-2.109375 18.308594 2.667968 21.832032 11.269531 3.269531 7.972656 11.496094 12.652344 20.046875 11.597656 38.476562-4.742187 78.765625 2.910157 114.511719 24.523438zm0 0" fill="#6a80ff"/><path d="m407.722656 239.738281c-9.835937-20.597656-23.238281-39.914062-40.203125-57.03125-6.953125-7.015625-14.277343-13.421875-21.898437-19.246093-71.375-21.851563-151.980469-4.515626-208.746094 52.136718-78.710938 78.546875-81.707031 204.179688-9.023438 286.332032 34.117188.214843 67.511719-21.238282 77.925782-58.492188 7.074218-25.289062 22.308594-48.5 45.054687-65.324219 23.933594-17.695312 52.183594-25.367187 79.742188-23.765625 61.015625 3.539063 103.488281-59.453125 77.148437-114.609375zm0 0" fill="#edf2fa"/><path d="m160.722656 409.332031c0 16.773438-13.59375 30.367188-30.367187 30.367188-16.769531 0-30.367188-13.59375-30.367188-30.367188 0-16.769531 13.597657-30.367187 30.367188-30.367187 16.773437 0 30.367187 13.597656 30.367187 30.367187zm0 0" fill="#fff"/><path d="m203.824219 200.144531c0 14.460938-11.722657 26.1875-26.1875 26.1875-14.464844 0-26.1875-11.726562-26.1875-26.1875 0-14.464843 11.722656-26.191406 26.1875-26.191406 14.464843 0 26.1875 11.726563 26.1875 26.191406zm0 0" fill="#fff"/><path d="m144.675781 289.527344c0 22.28125-18.0625 40.34375-40.34375 40.34375-22.277343 0-40.339843-18.0625-40.339843-40.34375 0-22.277344 18.0625-40.339844 40.339843-40.339844 22.28125 0 40.34375 18.0625 40.34375 40.339844zm0 0" fill="#fff"/><path d="m326.660156 256.097656c0 22.28125-18.0625 40.339844-40.339844 40.339844-22.28125 0-40.34375-18.058594-40.34375-40.339844s18.0625-40.339844 40.34375-40.339844c22.277344 0 40.339844 18.058594 40.339844 40.339844zm0 0" fill="#fff"/><path d="m149.78125 385.992188c-14.84375 1.992187-26.296875 14.699218-26.296875 30.089843 0 9.382813 4.257813 17.765625 10.941406 23.335938 14.847657-1.988281 26.296875-14.695313 26.296875-30.085938 0-9.382812-4.257812-17.769531-10.941406-23.339843zm0 0" fill="#ff5d5d"/><path d="m191.828125 178.136719c-10.652344 3.320312-18.382813 13.261719-18.382813 25.003906 0 9.234375 4.78125 17.34375 11.996094 22.007813 10.652344-3.324219 18.382813-13.261719 18.382813-25.003907 0-9.234375-4.78125-17.34375-11.996094-22.007812zm0 0" fill="#fea02c"/><path d="m314.84375 227.574219c-.8125-.816407-1.65625-1.574219-2.519531-2.304688-9.304688.6875-18.417969 4.578125-25.535157 11.695313-15.753906 15.753906-15.753906 41.292968 0 57.050781.8125.8125 1.660157 1.570313 2.523438 2.300781 9.304688-.6875 18.417969-4.578125 25.53125-11.695312 15.753906-15.753906 15.753906-41.292969 0-57.046875zm0 0" fill="#6a80ff"/><path d="m386.628906 224.710938 17.753906-66.269532 48.773438 13.070313-17.757812 66.265625zm0 0" fill="#fff"/><path d="m378.859375 344.371094c-10.375 38.726562-16.300781 78.457031-17.734375 118.425781 18.738281-35.324219 33.46875-72.683594 43.839844-111.398437l30.449218-113.625-26.117187-7zm0 0" fill="#7d9bff"/><g fill="#feda9b"><path d="m407.972656 54.625c.152344-.136719.300782-.273438.453125-.40625-.152343.132812-.300781.269531-.453125.40625zm0 0"/><path d="m413.460938 50.179688c.097656-.070313.191406-.140626.285156-.210938-.09375.070312-.1875.140625-.285156.210938zm0 0"/><path d="m410.683594 52.3125c.191406-.15625.386718-.308594.582031-.460938-.195313.152344-.390625.304688-.582031.460938zm0 0"/><path d="m405.601562 56.855469c.183594-.179688.367188-.359375.554688-.535157-.183594.179688-.371094.355469-.554688.535157zm0 0"/><path d="m401.050781 61.820312c.179688-.210937.363281-.421874.542969-.636718-.179688.214844-.367188.421875-.542969.636718zm0 0"/><path d="m403.078125 59.496094c.183594-.203125.367187-.410156.550781-.609375-.1875.203125-.367187.40625-.550781.609375zm0 0"/><path d="m398.761719 64.75c.203125-.273438.40625-.546875.613281-.820312-.207031.269531-.410156.546874-.613281.820312zm0 0"/><path d="m482.277344 10h.003906l-62.695312 36.195312h-.003907.003907zm0 0"/><path d="m493.78125 81.597656-.472656-.816406c-4.632813-8.027344-8.082032-16.589844-10.304688-25.433594 2.222656 8.84375 5.671875 17.40625 10.304688 25.433594zm0 0"/><path d="m443.601562 101.042969c-5.917968 6.378906-12.511718 9.722656-19.121093 11.132812 1.121093 8.75 3.945312 17.425781 8.632812 25.539063 7.738281 13.40625 20.054688 22.507812 33.832031 26.511718 2.105469-.902343 4.179688-1.921874 6.214844-3.09375 25.273438-14.59375 35.296875-45.4375 24.515625-71.710937-.707031-.316406-30.644531-13.628906-54.074219 11.621094zm0 0"/><path d="m496.414062 86.574219c.441407.9375.863282 1.878906 1.253907 2.828125-.390625-.949219-.808594-1.890625-1.253907-2.828125zm0 0"/><path d="m416.277344 48.238281c.207031-.132812.417968-.269531.625-.402343-.210938.132812-.417969.269531-.625.402343zm0 0"/><path d="m385.59375 98.847656c.191406-1.929687.46875-3.847656.824219-5.75-.355469 1.902344-.632813 3.820313-.824219 5.75zm0 0"/><path d="m495.441406 84.597656c.164063.320313.328125.636719.484375.957032-.15625-.320313-.320312-.636719-.484375-.957032zm0 0"/><path d="m391.894531 76.207031c.199219-.425781.40625-.847656.617188-1.269531-.210938.417969-.417969.84375-.617188 1.269531zm0 0"/><path d="m393.296875 73.414062c.273437-.515624.558594-1.03125.84375-1.542968-.285156.511718-.570313 1.027344-.84375 1.542968zm0 0"/><path d="m388.144531 85.984375c.269531-.898437.554688-1.789063.859375-2.675781-.304687.886718-.59375 1.777344-.859375 2.675781zm0 0"/><path d="m389.351562 82.308594c.183594-.503906.371094-1.003906.566407-1.5-.195313.496094-.382813.996094-.566407 1.5zm0 0"/><path d="m390.371094 79.667969c.289062-.710938.59375-1.414063.90625-2.113281-.3125.699218-.617188 1.402343-.90625 2.113281zm0 0"/><path d="m397.046875 67.160156c.175781-.261718.359375-.515625.539063-.769531-.179688.253906-.363282.507813-.539063.769531zm0 0"/><path d="m386.554688 92.382812c.367187-1.851562.808593-3.691406 1.328124-5.507812-.519531 1.816406-.960937 3.65625-1.328124 5.507812zm0 0"/><path d="m395.03125 70.339844c.210938-.351563.421875-.699219.636719-1.046875-.214844.347656-.425781.695312-.636719 1.046875zm0 0"/></g><path d="m454.207031 59.625c-.914062.527344-1.800781 1.078125-2.679687 1.640625-.210938.132813-.417969.265625-.625.398437-.859375.5625-1.703125 1.136719-2.53125 1.730469-.09375.070313-.1875.144531-.285156.214844-.746094.542969-1.476563 1.101563-2.199219 1.671875-.191407.152344-.386719.304688-.578125.460938-.769532.621093-1.523438 1.253906-2.261719 1.902343-.152344.132813-.296875.273438-.449219.40625-.617187.554688-1.222656 1.121094-1.816406 1.695313-.1875.179687-.375.359375-.558594.539062-.671875.664063-1.328125 1.339844-1.96875 2.03125-.1875.199219-.371094.402344-.554687.605469-.503907.558594-1 1.121094-1.480469 1.691406-.183594.210938-.367188.421875-.542969.636719-.574219.691406-1.132812 1.394531-1.675781 2.105469-.207031.273437-.410156.546875-.613281.824219-.402344.539062-.792969 1.085937-1.175781 1.636718-.179688.257813-.363282.511719-.539063.769532-.476563.703124-.933594 1.417968-1.378906 2.136718-.214844.34375-.425781.695313-.636719 1.042969-.304688.507813-.597656 1.019531-.890625 1.535156-.289063.511719-.570313 1.023438-.84375 1.542969-.269531.503906-.53125 1.011719-.785156 1.519531-.210938.421875-.417969.84375-.621094 1.269531-.210937.449219-.414063.898438-.613281 1.347657-.3125.703125-.617188 1.40625-.90625 2.117187-.152344.378906-.308594.757813-.457032 1.136719-.191406.5-.382812.996094-.5625 1.5-.121093.332031-.234374.667969-.347656 1.003906-.304687.886719-.59375 1.773438-.863281 2.671875-.085937.296875-.175781.59375-.261719.890625-.515625 1.820313-.957031 3.65625-1.324218 5.511719-.046876.234375-.09375.472656-.136719.710938-.355469 1.902343-.632813 3.820312-.828125 5.75-.019532.1875-.035156.375-.050782.558593 8.023438-.742187 16.230469-4.019531 23.4375-11.789062 23.429688-25.25 53.367188-11.9375 54.074219-11.617188 0-.007812-.003906-.015625-.007812-.023437-.390625-.949219-.8125-1.890625-1.253907-2.828125-.15625-.339844-.320312-.679688-.484374-1.015625-.160157-.320313-.324219-.640625-.488282-.960938-.378906-.730468-.769531-1.460937-1.1875-2.183594l-.945312-1.632812c-4.632813-8.023438-8.082032-16.589844-10.304688-25.433594-.371094-1.472656-.707031-2.957031-1.011718-4.445312-.449219-2.210938-.816407-4.441406-1.113282-6.675782l-26.667968 15.394532c0 .003906-.003907.003906-.003907.003906zm0 0" fill="#6a80ff"/><path d="m130.355469 368.964844c-22.257813 0-40.367188 18.109375-40.367188 40.367187 0 22.257813 18.109375 40.367188 40.367188 40.367188 22.257812 0 40.367187-18.109375 40.367187-40.367188 0-22.257812-18.109375-40.367187-40.367187-40.367187zm0 60.734375c-11.230469 0-20.367188-9.136719-20.367188-20.367188s9.136719-20.367187 20.367188-20.367187 20.367187 9.136718 20.367187 20.367187-9.136718 20.367188-20.367187 20.367188zm0 0"/><path d="m177.636719 163.953125c-19.953125 0-36.1875 16.234375-36.1875 36.191406 0 19.953125 16.234375 36.1875 36.1875 36.1875s36.1875-16.234375 36.1875-36.1875c0-19.957031-16.234375-36.191406-36.1875-36.191406zm0 52.378906c-8.925781 0-16.191407-7.261719-16.191407-16.1875 0-8.929687 7.265626-16.191406 16.191407-16.191406s16.191406 7.261719 16.191406 16.191406c0 8.925781-7.265625 16.1875-16.191406 16.1875zm0 0"/><path d="m139.929688 325.125c9.507812-9.507812 14.742187-22.148438 14.742187-35.597656 0-13.445313-5.234375-26.085938-14.742187-35.59375-9.507813-9.507813-22.152344-14.746094-35.597657-14.746094-13.445312 0-26.085937 5.238281-35.59375 14.746094-9.507812 9.507812-14.746093 22.148437-14.746093 35.59375 0 13.449218 5.238281 26.089844 14.746093 35.597656 9.507813 9.507812 22.148438 14.746094 35.59375 14.746094 13.449219 0 26.089844-5.238282 35.597657-14.746094zm-65.9375-35.597656c0-8.101563 3.15625-15.722656 8.886718-21.453125 5.730469-5.730469 13.351563-8.886719 21.453125-8.886719 8.105469 0 15.726563 3.15625 21.457031 8.886719 5.730469 5.730469 8.886719 13.351562 8.886719 21.453125 0 8.105468-3.15625 15.726562-8.886719 21.457031-5.730468 5.730469-13.351562 8.886719-21.457031 8.886719-8.101562 0-15.722656-3.15625-21.453125-8.886719-5.730468-5.730469-8.886718-13.351563-8.886718-21.457031zm0 0"/><path d="m286.320312 205.757812c-13.445312 0-26.089843 5.238282-35.597656 14.746094-9.507812 9.507813-14.742187 22.148438-14.742187 35.59375 0 13.445313 5.234375 26.089844 14.742187 35.597656 9.507813 9.507813 22.152344 14.742188 35.597656 14.742188 13.445313 0 26.089844-5.234375 35.597657-14.742188 9.507812-9.507812 14.742187-22.152343 14.742187-35.597656 0-13.445312-5.234375-26.085937-14.742187-35.59375-9.511719-9.507812-22.152344-14.746094-35.597657-14.746094zm21.453126 71.792969c-5.730469 5.734375-13.347657 8.890625-21.453126 8.890625-8.105468 0-15.726562-3.15625-21.457031-8.890625-5.730469-5.726562-8.886719-13.347656-8.886719-21.453125 0-8.105468 3.15625-15.726562 8.886719-21.457031s13.351563-8.886719 21.457031-8.886719c8.105469 0 15.722657 3.15625 21.453126 8.886719 5.730468 5.730469 8.886718 13.351563 8.886718 21.457031 0 8.105469-3.15625 15.722656-8.886718 21.453125zm0 0"/><path d="m502.910156 77.414062-.941406-1.632812c-11.136719-19.285156-14.65625-41.894531-9.917969-63.652344.839844-3.867187-.675781-7.871094-3.871093-10.203125-3.199219-2.335937-7.46875-2.5625-10.898438-.585937l-58.996094 34.0625c-29.710937-17.5625-61.988281-28.753906-95.988281-33.234375-5.472656-.71875-10.5 3.132812-11.21875 8.609375-.722656 5.476562 3.132813 10.496094 8.605469 11.21875 28.34375 3.734375 55.394531 12.527344 80.574218 26.164062-11.433593 10.671875-19.195312 24.332032-22.757812 39.042969-34.355469-18.277344-72.707031-25.398437-111.585938-20.605469-4.101562.507813-8.042968-1.742187-9.570312-5.464844-5.417969-13.214843-19.433594-20.457031-33.351562-17.21875l-11.378907 2.648438c-2.679687.625-5.433593-.542969-6.855469-2.902344-1.339843-2.230468-.917968-4.332031-.546874-5.390625.367187-1.039062 1.34375-2.917969 3.742187-3.800781 14.535156-5.34375 29.667969-9.265625 44.972656-11.652344 5.457031-.855468 9.1875-5.96875 8.335938-11.421875-.851563-5.460937-5.980469-9.191406-11.421875-8.339843-16.601563 2.59375-33.015625 6.847656-48.789063 12.644531-7.367187 2.707031-13.089843 8.515625-15.703125 15.929687-2.617187 7.4375-1.789062 15.578125 2.273438 22.335938 5.902344 9.820312 17.367187 14.671875 28.527344 12.074218l11.375-2.648437c4.308593-1 8.640624 1.238281 10.316406 5.328125 4.941406 12.042969 17.503906 19.332031 30.523437 17.726562 37.496094-4.625 74.453125 3.152344 106.96875 22.480469.488281 12.328125 3.863281 24.710938 10.449219 36.117188 2.484375 4.304687 5.40625 8.261719 8.679688 11.847656l-8.382813 31.277344c-3.660156-4.304688-7.480469-8.488281-11.460937-12.5-41.429688-41.796875-96.472657-64.898438-154.992188-65.058594-.203125 0-.398438 0-.605469 0-58.28125 0-113.203125 22.789063-154.703125 64.203125-41.445312 41.359375-64.285156 96.382812-64.316406 154.933594-.0273438 58.550781 22.753906 113.597656 64.152344 154.996094.425781.425781.851562.847656 1.285156 1.273437 17.1875 16.914063 39.605469 25.949219 62.859375 25.949219 7.820313 0 15.738281-1.023438 23.582031-3.109375 31.113282-8.292969 54.863282-31.738281 63.527344-62.722657 6.777344-24.238281 21.082031-44.976562 41.371094-59.976562 21.082031-15.59375 47.082031-23.347656 73.214844-21.828125 3.246093.1875 6.492187.203125 9.714843.054687-9.492187 45.070313-13.195312 91.101563-10.988281 137.242188.207031 4.34375 3.199219 8.054688 7.398438 9.179688.859374.230468 1.730468.339843 2.589843.339843 3.34375 0 6.539063-1.679687 8.410157-4.589843 30.296874-47.125 53.007812-98.457032 67.507812-152.566407l30.445312-113.625 17.117188-63.882812c5.519531-1.519531 10.882812-3.75 15.972656-6.6875 15.644532-9.03125 26.832032-23.613281 31.507813-41.0625 4.671875-17.449219 2.273437-35.671875-6.757813-51.316407zm-78.324218-22.558593 45.4375-26.234375c-.378907 16.15625 2.835937 32.207031 9.464843 47.046875-13.5625-.199219-29.722656 4.03125-43.214843 18.574219-12.699219 13.6875-30.234376 8.476562-40.460938 3.519531 2.386719-17.359375 12.457031-33.488281 28.773438-42.90625zm3.757812 170.671875-29.457031-7.894532 1.25-4.65625c.011719-.050781.027343-.101562.039062-.148437l11.371094-42.4375c4.769531 2.636719 9.894531 4.710937 15.296875 6.15625 4.640625 1.246094 9.335938 1.976563 14.027344 2.230469zm-97.195312 118.835937c-30.785157-1.777343-61.421876 7.34375-86.261719 25.710938-23.898438 17.671875-40.75 42.109375-48.738281 70.671875-6.738282 24.097656-25.210938 42.335937-49.417969 48.785156-24.246094 6.460938-49.394531-.183594-67.265625-17.769531-.390625-.382813-.777344-.769531-1.167969-1.160157-37.621094-37.617187-58.328125-87.640624-58.300781-140.84375.027344-53.207031 20.785156-103.207031 58.445312-140.792968 37.726563-37.644532 87.628906-58.359375 140.582032-58.359375h.550781c53.164062.144531 103.183593 21.144531 140.84375 59.136719 6.953125 7.015624 13.402343 14.5625 19.214843 22.476562l-2.648437 9.898438-30.449219 113.625c-.726562 2.722656-1.421875 5.453124-2.105468 8.183593-4.355469.546875-8.808594.695313-13.28125.4375zm64.160156 4.449219c-10.945313 40.84375-26.746094 80.042969-47.117188 116.933594.804688-42.132813 6.71875-83.984375 17.660156-124.828125l27.859376-103.96875 29.457031 7.894531zm95.042968-225.257812c-3.292968 12.289062-11.175781 22.558593-22.191406 28.917968-11.019531 6.359375-23.851562 8.050782-36.140625 4.757813-12.289062-3.292969-22.558593-11.171875-28.921875-22.191407-2.832031-4.910156-4.859375-10.066406-6.148437-15.316406 6.070312 1.953125 12.6875 3.238282 19.445312 3.238282 11.886719 0 24.179688-3.949219 34.539063-15.117188 14.246094-15.359375 31.53125-12.714844 38.945312-10.589844 2.621094 8.472656 2.824219 17.523438.472656 26.300782zm0 0"/><path d="m287.746094 19.996094c2.628906 0 5.210937-1.066406 7.070312-2.929688 1.859375-1.859375 2.925782-4.4375 2.925782-7.066406s-1.066407-5.210938-2.925782-7.070312c-1.859375-1.859376-4.441406-2.929688-7.070312-2.929688s-5.210938 1.070312-7.070313 2.929688c-1.859375 1.859374-2.929687 4.441406-2.929687 7.070312s1.070312 5.207031 2.929687 7.066406c1.859375 1.863282 4.441407 2.929688 7.070313 2.929688zm0 0"/></svg>